<?xml version="1.0" encoding="utf-8"?>
<!-- Generator: Adobe Illustrator 16.0.0, SVG Export Plug-In . SVG Version: 6.00 Build 0)  -->
<!DOCTYPE svg PUBLIC "-//W3C//DTD SVG 1.1//EN" "http://www.w3.org/Graphics/SVG/1.1/DTD/svg11.dtd">
<svg version="1.1"
	 id="svg2" sodipodi:docname="Cat_02812.svg" inkscape:version="0.48.2 r9819" xmlns:inkscape="http://www.inkscape.org/namespaces/inkscape" xmlns:sodipodi="http://sodipodi.sourceforge.net/DTD/sodipodi-0.dtd" xmlns:svg="http://www.w3.org/2000/svg" xmlns:dc="http://purl.org/dc/elements/1.1/" xmlns:rdf="http://www.w3.org/1999/02/22-rdf-syntax-ns#" xmlns:cc="http://creativecommons.org/ns#"
	 xmlns="http://www.w3.org/2000/svg" xmlns:xlink="http://www.w3.org/1999/xlink" x="0px" y="0px" width="500px" height="500px"
	 viewBox="398 257 500 500" enable-background="new 398 257 500 500" xml:space="preserve">
<path fill="none" stroke="#000000" stroke-miterlimit="10" d="M516.043,666.292c-0.653-0.673-1.19-1.13-1.194-1.016
	s-0.454-0.108-0.999-0.496c-1.193-0.849-1.679-2.106-1.162-3.009c0.294-0.513,0.243-0.615-0.225-0.456
	c-0.333,0.113-0.597,0.001-0.587-0.25c0.009-0.251-0.15-0.361-0.354-0.245c-0.527,0.299-0.779-0.892-0.778-3.673
	c0-1.324-0.131-2.413-0.292-2.419c-0.541-0.021-0.215-2.257,0.397-2.727c0.333-0.256,0.623-0.931,0.645-1.5
	c0.066-1.742,2.156-3.64,5.438-4.936c2.431-0.96,3.062-1.392,3.464-2.367c0.271-0.656,0.763-1.762,1.094-2.456
	s0.62-1.696,0.64-2.227s0.212-0.958,0.428-0.95c0.215,0.008,0.411-0.516,0.436-1.163c0.024-0.648,0.226-1.478,0.446-1.843
	c0.73-1.21,1.359-6.555,1.416-12.048c0.031-2.978,0.08-9.113,0.108-13.635s0.149-10.64,0.268-13.597
	c0.119-2.956,0.062-5.381-0.125-5.389c-0.188-0.007-0.281-0.848-0.208-1.867c0.074-1.021,0.016-4.238-0.128-7.151
	c-0.344-6.948-0.429-7.88-0.822-9.047c-0.182-0.54-0.315-1.686-0.295-2.547c0.021-0.89-0.366-2.392-0.895-3.482
	c-0.73-1.505-0.867-2.242-0.632-3.423c0.23-1.157,0.127-1.769-0.446-2.643c-0.411-0.625-0.834-2.152-0.942-3.396
	c-0.107-1.243-0.347-2.361-0.533-2.486c-0.186-0.124-0.322-0.616-0.304-1.094c0.018-0.477-0.191-1.224-0.464-1.658
	c-0.273-0.436-0.678-1.671-0.9-2.746c-0.222-1.074-0.816-2.398-1.32-2.942c-0.504-0.543-0.907-1.216-0.897-1.495
	c0.025-0.649-1.198-1.093-2.167-0.784c-0.908,0.29-2.165,1.439-2.187,2.001c-0.008,0.224-0.279,0.396-0.602,0.385
	c-0.322-0.013-0.593,0.154-0.602,0.369c-0.008,0.215-0.205,0.384-0.438,0.375c-0.406-0.016-1.152,0.657-4.518,4.074
	c-0.834,0.847-2.094,1.812-2.799,2.143c-1.408,0.662-2.716,1.938-2.765,2.7c-0.017,0.269-0.208,0.481-0.422,0.473
	c-0.215-0.008-0.4,0.223-0.411,0.513c-0.021,0.575-1.373,2.161-1.826,2.144c-0.461-0.018-1.84,1.599-2.499,2.928
	c-0.694,1.401-0.869,3.522-0.4,4.873c0.174,0.502,0.482,2.151,0.686,3.667c0.314,2.348,0.844,4.747,1.613,7.305
	c0.458,1.524,0.469,3.731,0.05,10.664c-0.098,1.626,0.259,3.913,1.246,7.984c0.586,2.415-0.576,9.963-1.528,9.927
	c-0.197-0.008-0.503,0.642-0.679,1.442c-0.635,2.876-5.517,7.85-8.081,8.23c-2.014,0.3-3.309-0.428-6.3-3.535
	c-2.383-2.477-2.625-2.889-2.977-5.06c-0.21-1.301-0.497-3.012-0.637-3.803c-0.14-0.79-0.119-3.754,0.046-6.584
	c0.231-3.965,0.156-5.933-0.329-8.569c-1.051-5.721-1.457-7.733-1.684-8.356c-0.178-0.488-0.531-4.058-0.661-6.682
	c-0.016-0.324-0.127-0.856-0.248-1.185c-0.35-0.953-0.879-5.417-1.097-9.243c-0.11-1.942-0.352-4.658-0.536-6.036
	c-0.282-2.101-0.234-2.648,0.296-3.395c0.348-0.489,0.541-1.157,0.43-1.485c-0.111-0.327,0.073-1.078,0.41-1.669
	c0.337-0.59,0.95-2.03,1.361-3.199c0.698-1.98,3.538-7.649,4.043-8.069c0.124-0.103,0.593-0.966,1.042-1.918
	s1.152-2.186,1.562-2.742c0.41-0.556,0.755-1.285,0.768-1.621c0.013-0.335,0.496-1.387,1.074-2.336s1.062-2.215,1.075-2.812
	c0.013-0.598,0.266-2.254,0.563-3.683c0.689-3.312-0.021-7.34-1.584-8.973c-0.55-0.574-1.579-1.8-2.287-2.724
	s-2.024-2.083-2.925-2.577c-0.902-0.494-1.961-1.341-2.355-1.882c-0.394-0.542-0.83-0.989-0.968-0.994
	c-0.278-0.011-2.114-1.365-3.73-2.751c-0.568-0.488-1.582-1.029-2.252-1.204c-0.672-0.175-1.913-1.082-2.771-2.026
	c-0.854-0.94-2.153-2.148-2.887-2.684c-0.733-0.536-1.589-1.207-1.901-1.491c-2.893-2.632-4.172-4.056-4.653-5.18
	c-0.312-0.727-0.837-1.564-1.167-1.859c-0.869-0.779-1.645-2.594-1.601-3.746c0.023-0.616-0.182-1.005-0.537-1.019
	c-0.348-0.014-0.478-0.248-0.328-0.597c0.141-0.328-0.019-0.688-0.372-0.839c-0.34-0.146-0.61-0.477-0.6-0.736
	c0.01-0.259-0.28-1.176-0.644-2.038c-0.559-1.322-1.134-4.57-1.479-8.353c-0.044-0.485,0.115-0.879,0.354-0.873
	c0.312,0.008,0.317-0.075,0.018-0.293c-0.593-0.433-0.519-3.715,0.093-4.079c0.376-0.224,0.39-0.375,0.056-0.61
	c-0.324-0.229-0.321-0.838,0.011-2.252c0.25-1.065,0.484-2.509,0.52-3.208c0.035-0.698,0.193-1.265,0.351-1.259
	c0.303,0.012,0.396-0.383,0.569-2.426c0.059-0.697,0.269-1.366,0.467-1.485c0.198-0.12,0.403-0.641,0.456-1.158
	c0.052-0.517,0.285-1.078,0.517-1.247c0.287-0.209,0.268-0.377-0.06-0.524c-0.544-0.245-0.598-2.114-0.06-2.094
	c0.615,0.023,0.845-1.086,0.475-2.292c-0.25-0.816-0.223-1.404,0.09-1.94c0.324-0.553,0.335-1.08,0.041-1.886
	c-0.225-0.615-0.354-1.513-0.288-1.996c0.066-0.482-0.108-0.976-0.389-1.096c-0.315-0.135-0.48-0.852-0.433-1.875
	c0.042-0.911-0.113-2.104-0.345-2.651c-0.617-1.456-0.818-7.136-0.264-7.45c0.312-0.177,0.24-0.859-0.246-2.299
	c-0.379-1.125-0.585-2.395-0.456-2.819c0.128-0.425,0.069-0.779-0.131-0.786c-0.548-0.021-1.595-2.702-1.313-3.362
	c0.158-0.368-0.097-0.748-0.706-1.055c-0.737-0.37-1.092-1.071-1.57-3.103c-0.339-1.444-0.564-2.844-0.499-3.11
	s-0.065-0.492-0.29-0.5c-0.224-0.009-0.397-0.292-0.385-0.63c0.013-0.338-0.245-0.904-0.573-1.259
	c-0.34-0.367-0.507-1.034-0.387-1.553c0.13-0.562,0.023-0.916-0.28-0.928c-0.56-0.021-1.171-2.308-1.265-4.735
	c-0.012-0.317-0.328-0.931-0.701-1.363c-0.374-0.432-0.854-1.425-1.069-2.205c-0.214-0.781-0.597-1.604-0.85-1.828
	c-0.545-0.485-1.234-5.384-1.203-8.56c0.012-1.236-0.11-2.254-0.271-2.262s-0.276-0.498-0.255-1.09
	c0.022-0.591-0.205-1.589-0.503-2.217c-0.298-0.629-0.516-1.833-0.483-2.678c0.079-2.092-0.816-7.259-1.594-9.201
	c-0.351-0.875-0.795-3.095-0.987-4.932c-0.192-1.838-0.605-5.378-0.917-7.866c-1.139-9.102-1.164-9.923-0.5-16.521
	c0.618-6.138,1.073-8.483,1.868-9.619c0.404-0.577,5.552-0.776,5.531-0.213c-0.022,0.582,2.454,1.961,4.026,2.242
	c0.855,0.153,1.594,0.286,1.64,0.296c0.047,0.011-0.026,0.278-0.162,0.597c-0.157,0.365-0.017,0.586,0.381,0.602
	c0.346,0.013,0.622,0.199,0.614,0.415c-0.008,0.215,0.301,0.402,0.688,0.417c0.387,0.015,1.409,0.759,2.271,1.652
	c0.862,0.895,1.689,1.631,1.838,1.637c0.584,0.021,3.133,3.479,2.929,3.973c-0.138,0.333-0.012,0.455,0.346,0.333
	c0.309-0.105,0.857,0.159,1.217,0.59c0.36,0.43,0.554,0.777,0.429,0.772c-0.124-0.004,0.226,0.496,0.778,1.112
	s1.667,1.979,2.477,3.03c0.81,1.051,1.712,1.92,2.005,1.931s0.436,0.166,0.316,0.344c-0.336,0.5,1.986,2.855,3.52,3.57
	c2.15,1.003,5.153,1.604,5.492,1.101c0.158-0.234,0.641-0.299,1.074-0.144c0.977,0.352,2.896-0.018,2.621-0.503
	c-0.111-0.197-0.565-0.371-1.009-0.389c-0.673-0.025-0.722-0.125-0.298-0.599c0.729-0.813,2.094-0.645,3.339,0.413
	c0.592,0.504,0.951,0.693,0.797,0.422c-0.306-0.54,0.231-0.602,1.593-0.181c0.479,0.148,0.888,0.632,0.937,1.107
	c0.124,1.189,1.893,1.228,2.462,0.054c0.462-0.954,1.027-1.137,0.997-0.323c-0.025,0.661,2.507,0.722,3.202,0.076
	c0.271-0.251,0.833-0.443,1.248-0.428c0.656,0.024,0.736-0.179,0.605-1.543c-0.13-1.357-0.049-1.568,0.594-1.544
	c0.513,0.02,0.755-0.247,0.778-0.855c0.031-0.818,1.314-1.94,2.228-1.949c0.782-0.007,4.559-1.813,4.586-2.193
	c0.016-0.215,0.439-0.751,0.94-1.19c0.501-0.439,1.187-1.295,1.524-1.9c0.336-0.604,1.319-2.192,2.183-3.527
	s1.576-2.566,1.582-2.737c0.006-0.17,0.28-0.4,0.607-0.512s0.603-0.402,0.612-0.647c0.009-0.244,0.432-0.919,0.938-1.498
	s1.474-1.696,2.15-2.48c1.509-1.753,2.696-2.821,3.117-2.805c0.175,0.007,0.328-0.252,0.34-0.575
	c0.012-0.322,0.286-0.576,0.608-0.563c0.323,0.012,0.593-0.154,0.602-0.369c0.008-0.215,0.26-0.382,0.56-0.37
	c0.299,0.011,0.644-0.212,0.766-0.497c0.269-0.628,2.712-1.721,3.76-1.681c0.818,0.031,1.777,1.812,1.333,2.473
	c-0.146,0.218-0.049,0.542,0.215,0.72s0.509,1.004,0.542,1.837c0.034,0.832,0.184,3.084,0.334,5.005
	c0.151,1.921,0.183,3.628,0.072,3.794c-0.112,0.165-0.029,0.417,0.182,0.56c0.422,0.283,0.249,6.375-0.188,6.623
	c-0.149,0.084-0.24,0.83-0.202,1.656c0.037,0.827,0.09,2.121,0.117,2.876s0.271,1.87,0.542,2.479
	c0.377,0.846,0.381,1.21,0.017,1.547c-0.262,0.243-0.484,0.714-0.493,1.048c-0.015,0.534,0.03,0.538,0.384,0.034
	c0.3-0.429,0.39-0.218,0.354,0.834c-0.026,0.773,0.209,1.976,0.524,2.67c0.522,1.154,0.508,1.509-0.161,4.068
	c-0.987,3.776-1.242,5.188-1.327,7.375c-0.04,1.044-0.288,1.973-0.567,2.132c-0.93,0.529-2.513,6.135-2.655,9.401
	c-0.042,0.968,0.024,2.732,0.148,3.921c0.124,1.189,0.204,2.646,0.177,3.237c-0.026,0.592,0.074,1.08,0.222,1.085
	c0.148,0.006,0.191,1.682,0.096,3.724c-0.096,2.042-0.03,3.719,0.146,3.726s0.194,0.36,0.041,0.787
	c-0.183,0.51-0.077,0.86,0.312,1.026c0.324,0.139,0.684,0.594,0.799,1.012c0.317,1.15,2.31,2.119,3.879,1.886
	c0.732-0.108,1.337-0.366,1.344-0.571c0.008-0.205,0.146-0.348,0.306-0.315c0.726,0.143,1.274-0.033,1.289-0.412
	c0.008-0.228-0.165-0.312-0.385-0.188s-0.393,0.04-0.384-0.188c0.009-0.228,0.205-0.406,0.435-0.398
	c0.23,0.009,0.693-0.237,1.028-0.548s1.053-0.548,1.595-0.527c0.656,0.025,1.064-0.221,1.219-0.732
	c0.128-0.423,0.385-0.667,0.571-0.542c0.186,0.125,0.345,0.049,0.354-0.169c0.008-0.219,0.635-0.488,1.393-0.602
	c0.79-0.117,1.387-0.437,1.399-0.748c0.011-0.298,0.381-0.529,0.822-0.512c0.44,0.017,1.542-0.294,2.449-0.69
	s1.879-0.712,2.161-0.701c0.283,0.011,0.52-0.167,0.529-0.395c0.009-0.229,0.207-0.286,0.44-0.129
	c0.233,0.156,0.57,0.069,0.747-0.195c0.19-0.282,0.527-0.342,0.822-0.144c0.672,0.451,4.333,0.373,4.958-0.105
	c0.274-0.211,0.74-0.279,1.035-0.153c0.295,0.126,0.705,0.072,0.911-0.119c0.207-0.191,1.407-0.396,2.667-0.455
	c1.26-0.06,2.932-0.25,3.715-0.423c0.783-0.174,2.8-0.342,4.483-0.375c1.682-0.032,3.17-0.162,3.306-0.288
	c0.136-0.126,0.57-0.217,0.964-0.202c0.916,0.035,0.975-0.732,0.063-0.821c-0.706-0.067,1.628-0.692,2.67-0.714
	c0.323-0.006,0.775-0.146,1.004-0.312c0.47-0.34,1.327-0.239,2.027,0.236c0.294,0.199,1.011-0.182,1.912-1.016
	c1.213-1.124,1.711-1.325,3.159-1.271c1.048,0.04,1.97-0.167,2.363-0.531c0.932-0.864,5.524-0.317,7.616,0.907
	c1.188,0.695,2.938,0.469,2.903-0.376c-0.025-0.611,0.338-0.837,1.125-0.7c0.142,0.024,1.24,0.114,2.44,0.199
	c1.199,0.085,2.175,0.298,2.168,0.474s0.943,0.259,2.11,0.185c1.822-0.116,2.151-0.032,2.327,0.589
	c0.262,0.93,4.205,2.351,6.965,2.51c1.54,0.09,2.44,0.405,3.666,1.284c0.893,0.642,1.729,1.067,1.859,0.948
	c0.129-0.119,0.64,0.07,1.136,0.423s1.464,0.734,2.153,0.85c4.497,0.752,5.689,1.308,5.657,2.635
	c-0.007,0.254,0.335,0.587,0.758,0.739c0.424,0.152,1.01,0.536,1.303,0.852c0.293,0.316,1.948,0.876,3.678,1.245
	c2.349,0.5,3.49,0.966,4.506,1.842c1.767,1.521,3.661,2.632,4.214,2.472c0.241-0.07,0.935,0.228,1.541,0.661
	s1.387,0.801,1.734,0.815c0.347,0.015,1.08,0.511,1.628,1.103c0.549,0.592,1.108,0.973,1.245,0.847
	c0.136-0.126,0.853,0.271,1.594,0.883c0.741,0.61,1.408,1.024,1.483,0.92c0.074-0.104,0.745,0.334,1.489,0.976
	s1.452,1.075,1.571,0.965c0.12-0.111,0.571,0.152,1.003,0.587c0.432,0.434,1.016,0.798,1.299,0.809
	c0.281,0.011,0.506,0.192,0.498,0.403s0.846,0.815,1.898,1.345c1.352,0.679,1.908,1.19,1.897,1.743
	c-0.012,0.579,0.075,0.65,0.335,0.273c0.281-0.409,0.392-0.387,0.564,0.119c0.117,0.346,0.55,0.642,0.961,0.657
	c0.41,0.016,0.954,0.3,1.209,0.631c0.254,0.332,1.178,0.848,2.051,1.146s1.889,0.866,2.255,1.262
	c0.575,0.621,1.689,0.967,2.718,0.845c0.163-0.02,0.285,0.229,0.273,0.551c-0.021,0.567,0.41,0.767,1.448,0.671
	c0.272-0.025,0.596,0.245,0.717,0.601c0.173,0.507,0.292,0.539,0.556,0.148c0.26-0.387,0.387-0.346,0.567,0.185
	c0.128,0.376,0.403,0.689,0.61,0.697s0.613,0.243,0.903,0.523c1.185,1.146,1.565,1.406,2.727,1.861
	c0.669,0.262,1.322,0.377,1.452,0.256c0.131-0.121,0.23-0.034,0.223,0.193c-0.01,0.228,0.67,0.72,1.509,1.093
	c1.726,0.767,3.076,1.892,3.052,2.54c-0.01,0.24,0.939,0.803,2.108,1.25c1.881,0.72,2.634,1.248,5.204,3.652
	c0.344,0.321,0.989,0.716,1.436,0.876s0.98,0.639,1.188,1.062c0.206,0.424,0.566,0.778,0.799,0.787s1.004,0.566,1.715,1.239
	c0.71,0.674,1.549,1.233,1.864,1.246c0.345,0.013,0.559,0.397,0.537,0.965c-0.026,0.679,0.157,0.919,0.653,0.858
	c0.797-0.097,1.806,0.913,2.147,2.151c0.131,0.473,0.401,0.888,0.601,0.922c0.199,0.035,0.537,0.113,0.75,0.176
	c0.213,0.062,0.518,0.143,0.678,0.179s0.021,0.227-0.309,0.423c-0.401,0.237-0.439,0.364-0.113,0.381
	c0.27,0.014,0.788,0.345,1.154,0.735c0.365,0.391,1.148,1.051,1.739,1.468c0.593,0.416,0.979,0.847,0.862,0.956
	c-0.118,0.108,0.197,0.678,0.701,1.264c0.503,0.586,0.91,1.199,0.904,1.362c-0.008,0.163,0.258,0.308,0.586,0.32
	c0.33,0.013,0.701,0.334,0.824,0.716c0.124,0.382,0.891,1.318,1.703,2.08c0.812,0.763,1.627,1.831,1.811,2.375
	c0.184,0.543,0.443,0.887,0.576,0.763c0.307-0.284,3.535,3.267,3.513,3.864c-0.009,0.242,0.089,0.342,0.22,0.222
	c0.232-0.216,3.185,2.934,3.168,3.38c-0.005,0.126,0.422,0.481,0.949,0.789c0.526,0.309,0.952,0.698,0.945,0.867
	c-0.016,0.402,1.508,2.033,3.2,3.43c0.741,0.611,1.272,1.181,1.181,1.266c-0.092,0.086,0.404,0.81,1.104,1.608
	c0.698,0.8,1.26,1.693,1.25,1.985c-0.012,0.293,0.243,0.542,0.566,0.555c0.322,0.012,0.58,0.188,0.572,0.391s1,1.484,2.24,2.849
	c1.241,1.363,2.249,2.665,2.24,2.893c-0.018,0.466,2.602,3.164,3.088,3.183c0.174,0.007,0.309,0.171,0.302,0.365
	c-0.013,0.317,0.938,1.602,3.187,4.303c0.423,0.508,1.014,0.989,1.312,1.068c0.707,0.188,2.277,1.818,2.257,2.345
	c-0.008,0.225,0.17,0.416,0.395,0.424c0.227,0.009,0.699,0.731,1.051,1.604c0.352,0.874,0.775,1.464,0.939,1.312
	s0.459,0.036,0.654,0.419c0.195,0.382,0.59,0.704,0.877,0.715c0.47,0.018,0.998,1.106,1.081,2.229
	c0.018,0.235,0.325,0.744,0.684,1.131s0.647,0.832,0.642,0.988s0.6,0.531,1.345,0.834c0.746,0.302,1.256,0.698,1.133,0.881
	c-0.292,0.434,1.688,2.408,2.451,2.444c0.419,0.021,0.45,0.11,0.112,0.308c-0.353,0.206-0.281,0.619,0.271,1.57
	c0.414,0.711,0.91,1.298,1.104,1.306c0.194,0.007,0.346,0.214,0.336,0.459s0.281,0.709,0.646,1.032
	c0.364,0.322,0.447,0.467,0.184,0.32c-0.736-0.408,0.559,0.619,1.432,1.949c0.432,0.657,0.793,1.668,0.803,2.244
	c0.01,0.577,0.438,1.527,0.949,2.112c2.543,2.905,3.267,3.927,3.473,4.902c0.123,0.584,0.406,1.069,0.631,1.077
	c0.224,0.009,0.291,0.188,0.15,0.397c-0.142,0.21-0.056,0.39,0.191,0.399c0.246,0.009,0.984,0.56,1.641,1.223
	c2.304,2.331,3.059,3.97,3.311,3.981c0.326,0.015,2.963,2.852,2.961,3.188c0,0.14,0.557,0.554,1.238,0.92s1.455,1.154,1.719,1.753
	c0.265,0.598,0.898,1.297,1.41,1.553c0.511,0.257,0.92,0.703,0.908,0.991c-0.011,0.288,0.141,0.529,0.338,0.537
	c0.196,0.008,0.952,0.637,1.68,1.397c0.727,0.763,1.682,1.516,2.123,1.674c0.441,0.159,0.796,0.446,0.789,0.638
	c-0.02,0.508,1.557,2.011,1.904,1.814c0.161-0.092,0.375,0.204,0.477,0.658c0.1,0.454,0.354,0.728,0.565,0.607
	c0.211-0.119,0.991,0.509,1.734,1.397c0.743,0.888,1.516,1.62,1.717,1.628c0.2,0.008,0.475,0.407,0.606,0.889
	c0.24,0.871,1.852,2.484,2.608,2.614c0.218,0.037,0.602,0.096,0.852,0.13c0.251,0.034,0.819,0.704,1.263,1.487
	c0.459,0.81,1.031,1.35,1.323,1.25c0.283-0.097,0.597,0.065,0.697,0.36s0.669,0.797,1.263,1.116
	c0.617,0.331,1.025,0.843,0.953,1.194c-0.084,0.411,0.268,0.709,1.065,0.9c1.231,0.295,3.216,0.696,3.19,1.387
	c-0.019,0.479,1.938,0.662,2.156,0.164c0.081-0.188,0.387-0.127,0.68,0.135c0.361,0.324,0.691,0.356,1.035,0.101
	c0.606-0.453,5.237,0.289,5.984,0.959c0.273,0.245,1.107,0.486,1.852,0.535c0.745,0.05,1.262,0.229,1.148,0.397
	c-0.113,0.168-0.004,0.314,0.244,0.323c0.248,0.01,0.548-0.303,0.666-0.694c0.207-0.686,0.27-0.682,1.722,0.106
	c0.827,0.45,1.501,0.958,1.493,1.13c-0.02,0.519,2.363,1.344,4.623,1.601c1.17,0.133,2.234,0.428,2.363,0.656
	c0.28,0.495,4.715,0.352,5.82-0.188c0.41-0.198,1.516-0.429,2.459-0.51s2.07-0.247,2.506-0.368c0.797-0.222,1.984-0.333,3.658-0.342
	c0.535-0.002,0.806-0.179,0.662-0.431c-0.133-0.235-0.006-0.374,0.283-0.309c1.158,0.262,4.779-0.382,5.408-0.961
	c0.367-0.339,1.197-0.657,1.844-0.707c0.646-0.05,1.238-0.248,1.318-0.439c0.078-0.192,0.393-0.34,0.697-0.328
	s0.561-0.155,0.568-0.37s0.259-0.382,0.557-0.37c1.028,0.039,4.591-1.121,4.605-1.499c0.008-0.209,0.303-0.127,0.655,0.182
	s0.528,0.355,0.389,0.103c-0.153-0.278,0.568-0.942,1.841-1.691c1.15-0.679,2.185-1.254,2.298-1.278
	c1.385-0.301,2.011-0.682,2.255-1.372c0.16-0.456,0.494-0.966,0.741-1.135c0.323-0.221,0.576-0.419,0.701-0.785
	c0.31-0.596-0.243,0.131,0.989-0.985c0.745-0.676,1.588-1.022,2.486-1.025c0.747-0.003,1.069-1.48,1.422-1.49
	c0.633-0.017,0.76-0.402,1.094-2.198c0.041-0.221,0.648-0.712,1.35-1.091c1.736-0.939,7.941-0.826,8.768,0.159
	c0.299,0.357,0.428,0.921,0.285,1.253c-0.148,0.349,0.074,0.964,0.529,1.453c0.48,0.52,0.738,1.268,0.663,1.927
	c-0.067,0.593-0.006,1.285,0.138,1.539c0.145,0.253,0.09,0.559-0.121,0.678c-0.24,0.136-0.24,0.68-0.004,1.457
	c0.324,1.057,0.271,1.314-0.359,1.74c-0.408,0.274-0.598,0.504-0.423,0.511s0.091,0.267-0.187,0.576
	c-0.278,0.311-0.658,0.462-0.844,0.337c-0.188-0.126-0.346-0.041-0.355,0.187c-0.008,0.228,0.121,0.667-0.162,0.656
	c-0.645-0.024-1.924,2.363-1.975,3.682c-0.021,0.559-0.098,1.715-0.314,1.569c-0.209-0.141-0.393,0.019-0.404,0.354
	c-0.014,0.335,0.102,0.76-0.445,0.594c-0.028,1.191-0.803,0.115-0.299,2.185c0.102,0.42,0.021,0.634-0.187,0.495
	c-0.202-0.136-0.581,0.18-0.843,0.701c-0.263,0.522-0.756,0.938-1.095,0.926c-0.341-0.013-0.518,0.154-0.394,0.371
	c0.123,0.218-0.123,0.74-0.547,1.161c-0.423,0.421-1.027,1.237-1.344,1.813c-0.314,0.577-0.893,1.389-1.281,1.805
	c-0.715,0.765-0.76,0.871-0.8,1.928c-0.013,0.322-0.218,0.579-0.454,0.57c-0.238-0.009-0.796,0.41-1.239,0.932
	c-0.442,0.521-1.124,0.937-1.512,0.922s-0.935,0.229-1.215,0.541s-0.839,0.556-1.243,0.54s-0.74,0.137-0.748,0.337
	s-0.369,0.463-0.805,0.583s-0.803,0.517-0.816,0.88c-0.028,0.732-1.553,1.796-2.312,1.611c-0.268-0.064-0.492,0.066-0.501,0.291
	s-0.413,0.393-0.899,0.375c-0.486-0.02-1.337,0.345-1.891,0.809s-1.5,1.074-2.104,1.356c-0.603,0.283-1.102,0.671-1.109,0.862
	s-0.191,0.229-0.41,0.082c-0.218-0.146-0.984,0.316-1.703,1.03c-1.22,1.211-1.484,1.295-3.998,1.279
	c-1.482-0.009-3.129,0.13-3.66,0.31c-1.148,0.388-4.019,0.285-6.181-0.222c-1.229-0.287-1.884-0.205-3.147,0.393
	c-0.877,0.416-1.714,0.908-1.859,1.093c-0.145,0.186-0.762,0.188-1.371,0.006c-1.729-0.519-8.718-0.951-8.732-0.541
	c-0.031,0.822-14.206-0.75-14.789-1.641c-0.117-0.179-1.516-0.803-3.109-1.387c-1.592-0.584-2.98-1.159-3.084-1.278
	c-0.814-0.942-2.49-1.373-5.016-1.289c-1.959,0.065-2.957-0.066-3.432-0.455c-0.366-0.301-0.975-0.565-1.351-0.586
	c-0.384-0.021-0.675-0.339-0.663-0.723c0.017-0.588-0.039-0.604-0.396-0.113c-0.365,0.503-0.471,0.493-0.882-0.087
	c-0.678-0.953-3.834-2.101-4.225-1.536c-0.207,0.299-0.302,0.251-0.295-0.148c0.006-0.345-0.113-0.43-0.291-0.207
	c-0.502,0.631-1.296,0.586-1.525-0.086c-0.139-0.408-0.314-0.485-0.493-0.218c-0.183,0.271-0.558,0.134-1.089-0.4
	c-0.445-0.448-0.981-0.821-1.191-0.829c-0.209-0.008-0.479-0.37-0.6-0.806c-0.16-0.581-0.562-0.805-1.51-0.84
	c-1.229-0.047-1.868-0.467-7.441-4.877c-0.506-0.4-1.105-0.927-1.335-1.171c-1.066-1.137-3.953-2.798-5.05-2.906
	c-1.385-0.138-2.189-0.568-1.891-1.014c0.33-0.492-4.16-4.491-5.082-4.526c-0.224-0.009-0.4-0.191-0.392-0.406
	c0.008-0.216-0.337-0.404-0.768-0.421s-0.772-0.276-0.761-0.578s-0.502-0.753-1.143-1.004c-0.639-0.25-1.267-0.775-1.395-1.168
	c-0.129-0.392-1.461-2.02-2.963-3.617c-1.5-1.598-2.62-3.006-2.486-3.13c0.132-0.123-0.037-0.234-0.379-0.247
	c-0.34-0.013-0.699-0.246-0.797-0.52c-0.133-0.365-0.191-0.372-0.228-0.027c-0.026,0.258-0.498,0.021-1.047-0.529
	c-0.55-0.549-1.341-1.011-1.759-1.026c-0.83-0.032-2.964-1.996-2.938-2.705c0.01-0.243-0.635-1.188-1.432-2.102
	c-0.796-0.912-1.379-1.724-1.293-1.802c0.084-0.079-0.888-0.658-2.16-1.289c-1.273-0.63-2.309-1.305-2.301-1.498
	c0.008-0.194-0.65-1.105-1.461-2.025c-0.811-0.919-1.727-2.261-2.035-2.98c-0.338-0.787-1.062-1.538-1.816-1.886
	c-0.691-0.317-1.277-0.494-1.301-0.393c-0.025,0.102-0.311-0.054-0.635-0.344c-0.721-0.646-2.502-0.361-3.645,0.58
	c-0.444,0.367-1.236,0.71-1.76,0.763c-1.049,0.106-3.601,3.036-3.689,4.236c-0.031,0.425-0.537,0.879-1.243,1.115
	c-0.654,0.219-1.196,0.563-1.204,0.764c-0.025,0.685-2.104,2.906-2.697,2.884c-0.324-0.013-0.488,0.157-0.363,0.376
	c0.124,0.22-0.276,0.587-0.89,0.817c-1.759,0.66-4.897,2.642-4.927,3.11c-0.031,0.507-1.752,1.269-2.779,1.23
	c-0.534-0.021-0.68,0.181-0.552,0.762c0.098,0.441-0.018,0.782-0.262,0.773c-0.24-0.01-0.452,0.404-0.472,0.919
	c-0.035,0.898-0.94,1.576-1.869,1.396c-0.243-0.047-0.582,0.397-0.752,0.987c-0.17,0.589-0.645,1.412-1.053,1.826
	c-0.409,0.416-0.821,1.104-0.916,1.532c-0.094,0.427-0.383,0.769-0.643,0.759c-0.259-0.01-0.795,0.237-1.189,0.549
	c-0.396,0.312-1.021,0.497-1.387,0.411c-0.452-0.106-0.856,0.255-1.252,1.12c-0.689,1.507-0.773,4.686-0.131,4.927
	c0.247,0.093,0.443,0.343,0.435,0.555c-0.008,0.212,0.484,1.173,1.094,2.135c0.609,0.963,1.099,1.983,1.089,2.27
	c-0.012,0.286,0.402,1.011,0.918,1.611s0.924,1.451,0.906,1.891c-0.017,0.439,0.102,0.804,0.264,0.81
	c0.453,0.018,0.016,4.325-0.499,4.899c-0.537,0.599,0.097,3.207,0.976,4.009c0.32,0.292,0.444,0.896,0.307,1.489
	c-0.127,0.549-0.081,1.098,0.101,1.22c0.183,0.123,0.315,0.638,0.296,1.146c-0.035,0.938,0.998,3.463,1.523,3.721
	c0.158,0.078,0.279,0.358,0.27,0.624c-0.01,0.265,0.439,1.469,1,2.674c0.559,1.205,0.972,2.354,0.916,2.554
	c-0.564,2-1.68,4.805-1.91,4.796c-0.158-0.005-0.414,0.514-0.566,1.153c-0.154,0.641-0.697,1.985-1.209,2.989
	c-0.511,1.003-0.916,2.222-0.9,2.707c0.016,0.484-0.145,0.875-0.357,0.867s-0.395,0.191-0.403,0.443
	c-0.01,0.252-0.295,0.742-0.634,1.089c-0.922,0.943-3.121,5.006-3.152,5.82c-0.016,0.391-0.203,0.703-0.418,0.695
	s-0.4,0.24-0.412,0.552c-0.012,0.312-0.266,0.699-0.563,0.86c-0.687,0.371-1.295,1.434-2.179,3.806
	c-1.01,2.711-1.652,3.997-1.99,3.984c-0.162-0.006-0.307,0.209-0.322,0.478s-0.388,0.915-0.828,1.437
	c-0.441,0.521-0.818,1.257-0.838,1.633c-0.018,0.376-0.177,0.679-0.352,0.672c-0.368-0.014-2.147,2.131-2.312,2.789
	c-0.245,0.974-1.068,2.502-1.471,2.73c-0.233,0.132-0.438,0.611-0.455,1.064c-0.018,0.453-0.135,0.713-0.262,0.577
	c-0.266-0.287-2.222,2.943-2.251,3.717c-0.011,0.286-0.374,0.599-0.808,0.695c-0.434,0.096-0.902,0.494-1.041,0.887
	c-0.285,0.804-0.485,1.128-1.605,2.595c-0.435,0.569-1.1,1.847-1.479,2.838c-0.753,1.973-3.361,5.795-3.947,5.784
	c-0.698-0.014-3.019,1.656-3.041,2.188c-0.09,2.071-11.374,7.453-15.314,7.304c-0.532-0.021-1.464,0.131-2.072,0.336
	c-1.075,0.362-1.719,0.421-7.359,0.667c-3.111,0.137-5.322-0.263-5.295-0.955c0.01-0.265-0.414-0.697-0.942-0.963
	s-0.955-0.636-0.948-0.823c0.007-0.188-0.45-0.9-1.017-1.583s-1.236-1.517-1.488-1.853c-0.297-0.395-0.385-1.723-0.249-3.76
	c0.243-3.65,0.631-3.425-4.701-2.729c-6.914,0.902-13.388,1.271-20.358,1.159l-7.193-0.116l-1.531-1.308
	c-2.045-1.747-4.013-4.026-4.003-4.638c0.005-0.271,0.233-0.824,0.507-1.229c0.395-0.583,0.393-0.952-0.012-1.783
	c-0.405-0.832-0.407-1.106-0.008-1.333c0.277-0.156,0.479-0.445,0.449-0.643c-0.131-0.879,0.159-1.305,1.375-2.021
	c0.716-0.421,1.071-0.777,0.79-0.791c-1.502-0.076,1.428-1.74,3.578-2.032c0.729-0.099,1.391-0.344,1.47-0.545
	c0.079-0.201,0.309-0.359,0.511-0.352s1.115-0.44,2.029-0.997c0.967-0.589,1.714-0.833,1.787-0.584
	c0.084,0.291,0.722,0.345,1.983,0.167c3.646-0.515,4.232-0.502,5.461,0.118c0.913,0.462,1.451,0.528,2.021,0.25
	c0.427-0.208,1.135-0.364,1.574-0.348c1.177,0.044,3.279-1.221,2.832-1.704c-0.508-0.548,0.433-2.269,1.463-2.676
	c0.447-0.177,0.825-0.497,0.839-0.712c0.014-0.215,0.979-1.261,2.144-2.323c1.166-1.063,2.126-2.116,2.134-2.34
	c0.008-0.225,0.371-0.506,0.807-0.626c0.435-0.12,0.804-0.559,0.82-0.974c0.016-0.416,0.284-0.746,0.596-0.734
	c0.312,0.012,0.758-0.279,0.992-0.647s0.424-0.516,0.423-0.328c-0.002,0.686,1.209-0.608,1.237-1.321
	c0.015-0.403,0.204-0.728,0.419-0.72c0.215,0.009,0.4-0.242,0.413-0.558c0.012-0.314,0.397-0.756,0.857-0.979
	s1.192-1.139,1.629-2.032c0.437-0.894,1.171-1.94,1.632-2.327c0.46-0.386,0.758-0.937,0.66-1.223
	c-0.098-0.287-0.03-0.516,0.15-0.509s0.455-0.621,0.612-1.396c0.156-0.775,0.599-1.731,0.984-2.126
	c0.542-0.556,0.71-1.356,0.744-3.545c0.075-4.865-0.292-6.639-1.686-8.142c-0.362-0.391-1.03-1.593-1.483-2.67
	c-0.564-1.341-2.141-3.338-4.994-6.326c-2.293-2.402-4.399-4.376-4.68-4.387c-0.281-0.011-0.504-0.195-0.496-0.411
	c0.015-0.392-1.326-2.008-1.677-2.021c-0.103-0.004-0.908-0.866-1.787-1.915c-0.88-1.05-1.98-2.333-2.445-2.852
	c-0.465-0.52-0.838-1.122-0.83-1.34s-0.165-0.295-0.385-0.17s-0.391,0.002-0.381-0.272c0.02-0.529-1.762-2.354-2.32-2.375
	c-0.182-0.007-0.321-0.263-0.309-0.567c0.011-0.306-2.01-2.761-4.492-5.456s-4.504-5.143-4.493-5.439
	c0.011-0.295-0.57-1.233-1.292-2.084c-0.721-0.85-1.307-1.679-1.3-1.842s-0.412-0.754-0.929-1.312
	c-0.517-0.559-0.935-1.161-0.928-1.341c0.007-0.179-0.485-0.955-1.093-1.724s-1.107-1.537-1.11-1.708s-0.426-0.803-0.941-1.402
	c-0.516-0.601-0.929-1.312-0.919-1.584s-0.132-0.498-0.317-0.506c-0.394-0.015-2.259-3.841-2.231-4.575
	c0.01-0.276-0.22-0.717-0.512-0.979s-0.632-0.955-0.755-1.541c-0.124-0.586-0.342-1.16-0.484-1.274
	c-0.142-0.116-0.637-1.193-1.099-2.396s-1.066-2.662-1.341-3.244c-0.275-0.582-0.471-1.834-0.435-2.781
	c0.055-1.462-0.108-1.862-1.075-2.635c-0.627-0.502-1.13-1.171-1.118-1.487c0.012-0.315-0.117-0.58-0.287-0.586
	c-0.169-0.007-0.321-0.365-0.337-0.798c-0.016-0.432-0.958-1.787-2.094-3.013l-2.065-2.228l-2.373,0.157
	c-1.305,0.087-2.285,0.312-2.178,0.502c0.274,0.483-1.704,0.356-2.598-0.167c-0.408-0.238-0.747-0.281-0.754-0.095
	c-0.013,0.351-0.686,0.697-3.395,1.751c-1.69,0.657-3.231,2.004-3.661,3.199c-0.144,0.398-0.523,0.715-0.845,0.703
	c-0.431-0.017-0.546,0.291-0.441,1.174c0.078,0.658-0.125,1.664-0.451,2.234c-0.351,0.615-0.638,2.196-0.703,3.879
	c-0.059,1.562-0.278,3.139-0.485,3.505c-1.065,1.894-1.394,3.244-1.619,6.657c-0.275,4.173-1.278,10.117-1.808,10.718
	c-0.645,0.729-1.271,3.478-1.595,7c-0.178,1.932-0.446,3.794-0.597,4.139c-0.151,0.344-0.385,2.186-0.52,4.091
	c-0.414,5.849-0.793,8.655-1.239,9.178c-0.234,0.274-0.46,0.762-0.5,1.083c-0.422,3.343-0.605,4.372-1.004,5.675
	c-0.255,0.832-0.546,2.788-0.647,4.346c-0.102,1.558-0.307,2.827-0.456,2.821c-0.377-0.014-1.424,6.089-1.769,10.31
	c-0.157,1.933-0.402,4.126-0.543,4.874c-0.396,2.099-0.977,6.912-1.199,9.939c-0.777,10.598-1.327,14.18-2.298,14.988
	c-0.593,0.493-1.162,2.643-0.857,3.239c0.213,0.416,0.107,1.233-0.298,2.292c-0.346,0.904-0.789,2.52-0.986,3.589
	c-0.196,1.069-0.508,2.12-0.691,2.336c-0.185,0.216-0.182,0.656,0.006,0.979c0.51,0.878,0.354,2.401-0.375,3.68
	c-0.358,0.627-0.562,1.55-0.456,2.056c0.225,1.065-0.794,5.545-1.258,5.527c-0.172-0.007-0.336,0.592-0.364,1.33
	c-0.04,1.06-0.317,1.517-1.318,2.173c-0.697,0.458-1.548,0.845-1.893,0.86c-0.344,0.016-1.074,0.254-1.624,0.53
	c-0.549,0.275-1.791,0.52-2.761,0.542c-2.322,0.054-5.499,0.695-6.551,1.324c-0.463,0.276-2.234,0.52-3.936,0.54
	c-1.887,0.022-3.909,0.325-5.182,0.775c-1.148,0.406-2.236,0.732-2.417,0.726c-0.181-0.007-0.862-0.562-1.515-1.235H516.043z"/>
<path d="M469.225,392.213c1.446-0.808,2.984-3.385,3.049-5.108c0.05-1.328-1.905-3.46-3.229-3.521
	c-0.846-0.039-1.777,1.304-1.827,2.636c-0.015,0.394-0.28,0.91-0.589,1.147c-0.747,0.574-1.944-0.638-1.524-1.542
	c1.476-3.172,1.395-3.452-1.083-3.747c-2.661-0.316-3.996,0.211-4.977,1.968c-0.847,1.515-0.857,1.633-0.275,3.067
	c0.705,1.734,2.251,3.666,3.576,4.466c0.51,0.309,1.803,0.707,2.873,0.888c1.07,0.18,2.12,0.357,2.334,0.396
	C467.767,392.899,468.519,392.607,469.225,392.213z"/>
<path d="M504.355,390.567c0.64-0.499,1.291-0.902,1.444-0.896c0.154,0.006,0.5-0.701,0.768-1.571
	c0.643-2.088-0.115-4.425-1.72-5.303c-1.485-0.812-2.563-0.214-2.939,1.633c-0.426,2.098-1.119,3.485-1.729,3.462
	c-0.304-0.012-0.846-0.783-1.204-1.716c-0.358-0.932-0.139-2.016-0.479-2.321c-0.546-0.49-1.416-0.365-1.45,0.514
	c-0.021,0.549-0.266,1.222-0.546,1.496c-1.154,1.131-0.398,4.515,1.21,5.412C499.075,392.039,503.004,391.619,504.355,390.567z"/>
</svg>
