<?xml version="1.0" encoding="utf-8"?>
<!-- Generator: Adobe Illustrator 16.0.0, SVG Export Plug-In . SVG Version: 6.00 Build 0)  -->
<!DOCTYPE svg PUBLIC "-//W3C//DTD SVG 1.1//EN" "http://www.w3.org/Graphics/SVG/1.1/DTD/svg11.dtd">
<svg version="1.1" id="Layer_1" xmlns="http://www.w3.org/2000/svg" xmlns:xlink="http://www.w3.org/1999/xlink" x="0px" y="0px"
	 width="100%" height="100%" viewBox="0 0 500 500" enable-background="new 0 0 500 500" xml:space="preserve">
<g>
	<path fill="none" stroke="#333333" stroke-miterlimit="10" d="M307.417,440.25c79.729-28.5,138.041-102.062,138.041-190
		c0-108.375-87.916-196.354-196.125-196.354c-108.417,0-196.375,87.979-196.375,196.354c0,88.834,59.25,162.875,140.333,190v-37.354
		c0-22.334,9.333-34.168,18.667-40.543c-50.562-5.271-104.792-23.5-104.792-110.979c0-24.521,8.667-44.604,23.021-60.104
		c-2.25-5.917-9.771-28.667,2.292-59.438c0,0,18.917-6.146,61.729,23.021c17.771-5.021,37.146-7.521,56.021-7.521
		c19.125,0,38.292,2.479,56.271,7.521c42.833-29.167,61.5-23.021,61.5-23.021c12.292,30.771,4.562,53.521,2.292,59.438
		c14.354,15.5,23.021,35.583,23.021,60.104c0,87.479-54.229,105.709-104.792,110.979c9.312,6.375,18.896,18.209,18.896,40.543
		V440.25L307.417,440.25z"/>
</g>
</svg>
